<svg xmlns="http://www.w3.org/2000/svg" width="870" height="333" viewBox="0 0 870 333">
  <g fill="none" fill-rule="evenodd" stroke="#ED1C4F" stroke-width="2" transform="translate(3 2)">
    <polyline points="153.094 252.945 153.094 .523 0 153.617 256.617 153.617"/>
    <polyline points="685.684 252.945 685.684 .523 532.59 153.617 789.207 153.617"/>
    <g transform="translate(77.187 77.187)">
      <polyline points="153.094 252.945 153.094 .523 0 153.617 256.617 153.617"/>
      <polyline points="685.684 252.945 685.684 .523 532.59 153.617 789.207 153.617"/>
    </g>
    <circle cx="393.654" cy="125.738" r="125.214"/>
    <circle cx="470.84" cy="202.925" r="125.214"/>
    <path d="M153.516295.523156089L230.679808 76.9814671M0 154.039451L77.1635131 230.497762M153.516295 253.524871L230.679808 329.983182M685.248714 252.667238L762.412227 329.125549M685.248714.523156089L762.412227 76.9814671M788.164666 154.039451L865.328179 230.497762M532.590051 154.039451L609.753565 230.497762M256.432247 154.039451L333.59576 230.497762"/>
  </g>
</svg>
