<svg xmlns="http://www.w3.org/2000/svg" width="144" height="373" viewBox="0 0 144 373">
  <g fill="none" fill-rule="evenodd" stroke="#ED1C4F" stroke-width="2" transform="rotate(90 69 71.91)">
    <polyline points="65.281 107.663 65.281 .223 0 65.385 109.424 65.385"/>
    <polyline points="292.384 107.663 292.384 .223 227.103 65.385 336.527 65.385"/>
    <g transform="translate(33.134 33.134)">
      <polyline points="65.281 107.663 65.281 .223 0 65.385 109.424 65.385"/>
      <polyline points="292.384 107.663 292.384 .223 227.103 65.385 336.527 65.385"/>
    </g>
    <circle cx="167.512" cy="53.383" r="53.383"/>
    <circle cx="200.647" cy="86.517" r="53.383"/>
    <path d="M65.3482587 0L98.4825871 32.2139303M0 65.3482587L33.1343284 97.5621891M65.3482587 107.686567L98.4825871 139.900498M291.766169 107.686567L324.900498 139.900498M291.766169 0L324.900498 32.2139303M335.945274 65.3482587L369.079602 97.5621891M227.338308 65.3482587L260.472637 97.5621891M109.527363 65.3482587L142.661692 97.5621891"/>
  </g>
</svg>
