<?xml version="1.0" encoding="UTF-8"?><!DOCTYPE svg PUBLIC "-//W3C//DTD SVG 1.1//EN" "http://www.w3.org/Graphics/SVG/1.1/DTD/svg11.dtd"><svg xmlns="http://www.w3.org/2000/svg"><symbol id="instagram-hover" viewBox="0 0 21 21">
    <g fill="none" fill-rule="evenodd">
        <rect width="20" height="20" x=".5" y=".5" fill="#ED1C4F" stroke="#ED1C4F" rx="4"/>
        <circle cx="10.5" cy="10.5" r="4.5" stroke="#FFF" stroke-width="2"/>
        <circle cx="16" cy="5" r="1" stroke="#FFF"/>
    </g>
</symbol><symbol id="instagram" viewBox="0 0 21 21">
    <g fill="none" fill-rule="evenodd" stroke="#333132">
        <rect width="20" height="20" x=".5" y=".5" rx="4"/>
        <circle cx="10.5" cy="10.5" r="4.5" stroke-width="2"/>
        <circle cx="16" cy="5" r="1"/>
    </g>
</symbol><symbol id="instagram2" viewBox="0 0 21 21">
    <g fill="none" fill-rule="evenodd" stroke="#ffffff">
        <rect width="20" height="20" x=".5" y=".5" rx="4"/>
        <circle cx="10.5" cy="10.5" r="4.5" stroke-width="2"/>
        <circle cx="16" cy="5" r="1"/>
    </g>
</symbol><symbol id="linkedin-hover" viewBox="0 0 21 21">
    <g fill="none" fill-rule="evenodd">
        <rect width="20" height="20" x=".5" y=".5" fill="#ED1C4F" stroke="#ED1C4F" rx="4"/>
        <path fill="#FFF" d="M5.054 15V4.99h2.282V15H5.054zm4.312 0V7.678h2.03V8.84c.364-.728 1.162-1.33 2.38-1.33 1.442 0 2.464.868 2.464 2.828V15h-2.03v-4.368c0-.994-.392-1.47-1.288-1.47-.868 0-1.526.532-1.526 1.61V15h-2.03z"/>
    </g>
</symbol><symbol id="linkedin" viewBox="0 0 21 21">
    <g fill="none" fill-rule="evenodd" transform="translate(-5)">
        <rect width="20" height="20" x="5.5" y=".5" stroke="#333132" rx="4"/>
        <path fill="#333132" d="M10.054 15V4.99h2.282V15h-2.282zm4.312 0V7.678h2.03V8.84c.364-.728 1.162-1.33 2.38-1.33 1.442 0 2.464.868 2.464 2.828V15h-2.03v-4.368c0-.994-.392-1.47-1.288-1.47-.868 0-1.526.532-1.526 1.61V15h-2.03z"/>
    </g>
</symbol><symbol id="linkedin2" viewBox="0 0 21 21">
    <g fill="none" fill-rule="evenodd" transform="translate(-5)">
        <rect width="20" height="20" x="5.5" y=".5" stroke="#ffffff" rx="4"/>
        <path fill="#ffffff" d="M10.054 15V4.99h2.282V15h-2.282zm4.312 0V7.678h2.03V8.84c.364-.728 1.162-1.33 2.38-1.33 1.442 0 2.464.868 2.464 2.828V15h-2.03v-4.368c0-.994-.392-1.47-1.288-1.47-.868 0-1.526.532-1.526 1.61V15h-2.03z"/>
    </g>
</symbol><symbol id="logo-hover" viewBox="0 0 52 28">
    <g fill="#ED1C4F" fill-rule="evenodd">
        <path d="M23.646 22.457l2.675 2.674-1.184 1.19-2.73-2.729a13.862 13.862 0 0 1-8.737 3.072h-.032C6.102 26.647-.017 20.686 0 13.374.008 9.838 1.44 6.512 4.032 4.01 6.614 1.518 10.036.145 13.668.145c7.57.017 13.689 5.978 13.672 13.29-.008 3.483-1.411 6.657-3.694 9.022zM34.667 27.605v.045H32.74v-11.4h1.926v.008h8.7a6.89 6.89 0 0 0 4.988-2.134 6.89 6.89 0 0 0-4.988-2.135h-8.7v.053H32.74V.642H43.367C48.127.642 52 4.53 52 9.309a8.64 8.64 0 0 1-1.458 4.815A8.64 8.64 0 0 1 52 18.938c0 4.78-3.873 8.667-8.633 8.667h-8.7z"/>
    </g>
</symbol><symbol id="logo" viewBox="0 0 52 28">
    <g fill="none" fill-rule="evenodd">
        <path d="M0 .145h27.34v26.519H0z"/>
        <path fill="#ED1C4F" d="M13.669 1.824c-3.177 0-6.17 1.2-8.43 3.38-2.263 2.185-3.513 5.087-3.52 8.174-.015 6.385 5.335 11.592 11.925 11.607 6.602 0 11.963-5.183 11.978-11.554.014-6.386-5.336-11.593-11.926-11.607h-.027zm-.031 24.84C6.102 26.647-.017 20.686 0 13.374.008 9.838 1.44 6.512 4.032 4.01 6.614 1.518 10.036.145 13.668.145c7.57.017 13.689 5.978 13.672 13.29-.017 7.294-6.15 13.229-13.67 13.229h-.032z"/>
        <path fill="#343434" d="M13.481 14.672l1.185-1.19L26.321 25.13l-1.184 1.19z"/>
        <path fill="#ED1C4F" d="M34.025 17.975v-1.717h9.342c3.817 0 6.923-3.117 6.923-6.949s-3.106-6.95-6.923-6.95h-9.342V.642h9.342C48.127.642 52 4.53 52 9.309s-3.873 8.666-8.633 8.666h-9.342z"/>
        <path fill="#ED1C4F" d="M34.025 27.605v-1.717h9.342c3.817 0 6.923-3.117 6.923-6.95 0-3.832-3.106-6.95-6.923-6.95h-9.342v-1.716h9.342c4.76 0 8.633 3.888 8.633 8.666 0 4.78-3.873 8.667-8.633 8.667h-9.342z"/>
        <path fill="#343434" d="M32.74 11.556h1.927V.642H32.74zM32.74 26.963h1.927V16.049H32.74z"/>
    </g>
</symbol></svg>