<?xml version="1.0" encoding="UTF-8"?>
<svg width="450px" height="326px" viewBox="0 0 450 326" version="1.1" xmlns="http://www.w3.org/2000/svg" xmlns:xlink="http://www.w3.org/1999/xlink">
    <!-- Generator: Sketch 51.3 (57544) - http://www.bohemiancoding.com/sketch -->
    <title>bg_comp2</title>
    <desc>Created with Sketch.</desc>
    <defs></defs>
    <g id="guide" stroke="none" stroke-width="1" fill="none" fill-rule="evenodd">
        <g id="sg_hover" transform="translate(-715.000000, -1641.000000)" stroke-width="1.2">
            <g id="bg_comp2" transform="translate(716.000000, 1642.000000)">
                <path d="M175.510581,0.104907699 L210.130122,220.620891" id="Line-Copy" stroke="#333132" stroke-linecap="square"></path>
                <path d="M175.996979,0.209815398 C148.057882,0.209815398 118.725052,0.209815398 87.9984894,0.209815398 C41.9086457,0.209815398 2.58619119,20.0373706 0.138891271,42.638423 C-2.30840865,65.2394755 28.0377825,75.7859776 55.4678675,75.7859776 C73.7545908,75.7859776 103.674048,75.7859776 145.226239,75.7859776" id="Path-13" stroke="#ED1C4F"></path>
                <path d="M210.196889,220.515984 C175.443164,220.515984 143.757743,220.515984 115.140625,220.515984 C72.214948,220.515984 36.7861011,240.343539 34.3388012,262.944591 C31.8915013,285.545644 62.2376925,296.092146 89.6677775,296.092146 C107.954501,296.092146 137.873958,296.092146 179.426149,296.092146" id="Path-13-Copy" stroke="#ED1C4F"></path>
                <path d="M144.667717,75.8482665 L179.287258,296.36425" id="Line" stroke="#333132" stroke-linecap="square"></path>
                <polygon id="Path-14" stroke="#333132" points="183.803207 201.031018 326.028541 114.190391 356.60094 237.009441 215.090289 323.930387"></polygon>
                <ellipse id="Oval-2" stroke="#ED1C4F" transform="translate(325.693666, 113.754495) rotate(-13.000000) translate(-325.693666, -113.754495) " cx="325.693666" cy="113.754495" rx="124.378799" ry="84.5603569"></ellipse>
            </g>
        </g>
    </g>
</svg>