<?xml version="1.0" encoding="UTF-8"?>
<svg width="481px" height="271px" viewBox="0 0 481 271" version="1.1" xmlns="http://www.w3.org/2000/svg" xmlns:xlink="http://www.w3.org/1999/xlink">
    <!-- Generator: Sketch 51.3 (57544) - http://www.bohemiancoding.com/sketch -->
    <title>bg_comp1</title>
    <desc>Created with Sketch.</desc>
    <defs></defs>
    <g id="guide" stroke="none" stroke-width="1" fill="none" fill-rule="evenodd">
        <g id="sg_hover" transform="translate(-105.000000, -1662.000000)" stroke-width="1.2">
            <g id="bg_comp1" transform="translate(83.000000, 1663.000000)">
                <path d="M278.838998,268.716842 L367.476706,118.54025" id="Path-11" stroke="#333132"></path>
                <path d="M332.047406,0 C369.357838,0 398.5433,0 419.603792,0 C451.19453,0 494.543877,27.5864267 501.038825,63.4463257 C507.533773,99.3062248 479.787735,118.463076 453.353666,118.463076 C435.730953,118.463076 407.119624,118.463076 367.519678,118.463076" id="Path-10-Copy" stroke="#ED1C4F"></path>
                <path d="M243.142218,150.195886 C280.45265,150.195886 309.638112,150.195886 330.698604,150.195886 C362.289342,150.195886 405.638689,177.782312 412.133637,213.642211 C418.628585,249.50211 390.882547,268.658961 364.448478,268.658961 C346.825765,268.658961 318.214436,268.658961 278.61449,268.658961" id="Path-10" stroke="#ED1C4F"></path>
                <path d="M243.366726,150.176592 L332.004434,0" id="Path-11-Copy" stroke="#333132"></path>
                <polygon id="Path-12" stroke="#333132" points="192.382351 38.3049321 143.567636 169.180847 296.690896 251.719127 344.551452 119.924132"></polygon>
                <ellipse id="Oval-2" stroke="#ED1C4F" transform="translate(143.706174, 168.708178) rotate(20.000000) translate(-143.706174, -168.708178) " cx="143.706174" cy="168.708178" rx="125.473659" ry="75.0882959"></ellipse>
            </g>
        </g>
    </g>
</svg>