<?xml version="1.0" encoding="UTF-8"?>
<svg width="457px" height="289px" viewBox="0 0 457 289" version="1.1" xmlns="http://www.w3.org/2000/svg" xmlns:xlink="http://www.w3.org/1999/xlink">
    <!-- Generator: Sketch 51.3 (57544) - http://www.bohemiancoding.com/sketch -->
    <title>bg_comp3</title>
    <desc>Created with Sketch.</desc>
    <defs></defs>
    <g id="guide" stroke="none" stroke-width="1" fill="none" fill-rule="evenodd">
        <g id="sg_hover" transform="translate(-408.000000, -2016.000000)" stroke-width="1.2">
            <g id="bg_comp3" transform="translate(362.000000, 1988.000000)">
                <path d="M277.492558,315.533153 L351.082995,158.842129" id="Line-2-Copy" stroke="#333132" stroke-linecap="square"></path>
                <path d="M341.233198,28.7568787 C363.055593,28.7568787 391.255826,28.7568787 425.833897,28.7568787 C477.701004,28.7568787 501.856711,69.4527444 501.856711,100.079457 C501.856711,130.70617 473.561541,158.735989 437.151965,158.735989 C412.878914,158.735989 384.191026,158.735989 351.088302,158.735989" id="Path-15" stroke="#ED1C4F"></path>
                <path d="M267.869193,185.674335 C289.691588,185.674335 317.891821,185.674335 352.469892,185.674335 C404.336998,185.674335 428.492706,226.3702 428.492706,256.996913 C428.492706,287.623626 400.197536,315.653445 363.78796,315.653445 C339.514908,315.653445 310.827021,315.653445 277.724297,315.653445" id="Path-15-Copy" stroke="#ED1C4F"></path>
                <ellipse id="Oval" stroke="#ED1C4F" transform="translate(164.729364, 164.276500) rotate(36.000000) translate(-164.729364, -164.276500) " cx="164.729364" cy="164.2765" rx="118.763645" ry="116.499323"></ellipse>
                <path d="M268.435273,185.787551 L342.02571,29.0965268" id="Line-2" stroke="#333132" stroke-linecap="square"></path>
                <polygon id="Path-16" stroke="#333132" points="134.681115 187.381421 165.513031 163.998767 284.807376 281.982282 254.888264 305.370243"></polygon>
            </g>
        </g>
    </g>
</svg>