<?xml version="1.0" encoding="UTF-8" standalone="no"?>
<svg width="91px" height="91px" viewBox="0 0 91 91" version="1.1" xmlns="http://www.w3.org/2000/svg" xmlns:xlink="http://www.w3.org/1999/xlink" xmlns:sketch="http://www.bohemiancoding.com/sketch/ns">
    <!-- Generator: Sketch 3.3.3 (12072) - http://www.bohemiancoding.com/sketch -->
    <title>email</title>
    <desc>Created with Sketch.</desc>
    <defs></defs>
    <g id="Page-1" stroke="none" stroke-width="1" fill="none" fill-rule="evenodd" sketch:type="MSPage">
        <g id="email" sketch:type="MSLayerGroup">
            <g id="Layer_2_copy" sketch:type="MSShapeGroup">
                <circle id="Oval" fill="#000000" cx="45.5" cy="45.5" r="45.25"></circle>
                <path d="M45.5,84.286 C24.114,84.286 6.715,66.886 6.715,45.499 C6.715,24.113 24.114,6.714 45.5,6.714 C66.887,6.714 84.286,24.113 84.286,45.499 C84.285,66.886 66.887,84.286 45.5,84.286 L45.5,84.286 L45.5,84.286 Z" id="Shape" fill="#000000"></path>
                <path d="M45.5,4.128 C68.349,4.128 86.871,22.65 86.871,45.499 C86.871,68.347 68.349,86.871 45.5,86.871 C22.65,86.871 4.129,68.348 4.129,45.499 C4.128,22.651 22.65,4.128 45.5,4.128 L45.5,4.128 Z M45.5,9.3 C25.539,9.3 9.3,25.539 9.3,45.5 C9.3,65.461 25.539,81.7 45.5,81.7 C65.461,81.7 81.7,65.462 81.7,45.5 C81.7,25.539 65.461,9.3 45.5,9.3 L45.5,9.3 L45.5,9.3 Z" id="Shape" fill="#FFFFFF"></path>
            </g>
            <g id="Layer_1_copy" transform="translate(6.000000, 8.000000)" stroke="#000000" stroke-width="3" fill="#FFFFFF" sketch:type="MSShapeGroup">
                <path d="M77.75,38.75 C77.75,35.634 75.293,31.363 74.549,28.477 L24.895,0.807 L0.818,44.014 L50.82,71.877 C62.75,72 77.75,54.758 77.75,38.75 L77.75,38.75 Z" id="Shape"></path>
                <path d="M53.3780251,72.999 L3,44.9032422 L51.060634,33 L63.75,68.399822 L53.3780251,72.999 Z" id="Shape"></path>
                <path d="M42.361,50.941 L77.065,43.425 C77.256,41.919 78.875,40.679 78.875,39.124 C78.875,36.019 78.863,33.751 78.125,30.874 L26.759,2.356 L42.361,50.941 L42.361,50.941 Z" id="Shape"></path>
            </g>
            <g id="Layer_5" transform="translate(7.000000, 4.000000)" sketch:type="MSShapeGroup">
                <g id="Group">
                    <path d="M6.737,58.833 C10.252,65.248 15.645,70.493 22.181,73.808 C27.087,76.296 32.633,77.7 38.5,77.7 C58.461,77.7 74.7,61.462 74.7,41.5 C74.7,31.135 70.321,21.773 63.316,15.167 C57.59,9.769 50.11,6.216 41.833,5.457 L41.833,58.833 L6.737,58.833 L6.737,58.833 Z" id="Shape"></path>
                    <path d="M67.589,12.082 C60.855,5.423 51.845,1.072 41.833,0.273 L41.833,5.456 C50.11,6.215 57.591,9.768 63.316,15.166 C70.321,21.772 74.7,31.134 74.7,41.5 C74.7,61.461 58.461,77.7 38.5,77.7 C32.633,77.7 27.087,76.297 22.181,73.808 C15.645,70.494 10.252,65.248 6.737,58.833 L0.931,58.833 C4.923,67.47 11.799,74.501 20.331,78.678 C25.815,81.364 31.981,82.871 38.5,82.871 C61.349,82.871 79.871,64.348 79.871,41.499 C79.871,29.992 75.173,19.581 67.589,12.082 L67.589,12.082 Z" id="Shape" fill="#FFFFFF"></path>
                </g>
            </g>
        </g>
    </g>
</svg>